<?xml version="1.0" standalone="no"?>
<!DOCTYPE svg PUBLIC "-//W3C//DTD SVG 20010904//EN"
 "http://www.w3.org/TR/2001/REC-SVG-20010904/DTD/svg10.dtd">
<svg version="1.0" xmlns="http://www.w3.org/2000/svg"
 width="639.000000pt" height="380.000000pt" viewBox="0 0 639.000000 380.000000"
 preserveAspectRatio="xMidYMid meet">

<g transform="translate(0.000000,380.000000) scale(0.100000,-0.100000)"
fill="#000000" stroke="none">
<path d="M0 1900 l0 -1900 3195 0 3195 0 0 1900 0 1900 -3195 0 -3195 0 0
-1900z m730 805 l0 -45 -50 0 -50 0 0 45 0 45 50 0 50 0 0 -45z m155 0 l0 -40
-47 -3 c-49 -3 -50 -2 -50 43 0 45 1 46 50 43 l47 -3 0 -40z m4955 0 l0 -45
-2442 2 -2443 3 -3 28 c-2 16 -1 35 2 43 5 12 350 14 2446 14 l2440 0 0 -45z
m-3675 -165 c58 -28 78 -68 78 -154 -1 -79 -142 -881 -169 -961 -23 -66 -94
-137 -155 -154 -29 -8 -86 -12 -152 -9 -114 3 -137 12 -181 72 -36 47 -27 139
58 606 53 292 84 441 100 476 26 56 62 96 106 119 73 38 241 40 315 5z m-1043
-317 l3 -317 101 294 c56 162 105 305 109 318 6 21 10 22 141 22 l136 0 -6
-27 c-5 -21 -179 -1013 -211 -1200 l-6 -33 -106 0 -106 0 7 51 c4 28 22 135
41 237 54 301 52 309 -18 102 l-64 -185 -97 -3 -98 -3 7 183 c4 101 4 180 1
177 -7 -6 -26 -108 -80 -424 l-23 -130 -106 -3 c-93 -2 -107 -1 -107 14 0 15
125 734 175 1009 13 72 27 150 30 175 4 25 9 48 12 53 2 4 62 7 133 7 l130 0
2 -317z m1438 290 c0 -16 -20 -228 -45 -473 -44 -432 -50 -511 -38 -481 3 8
61 231 128 495 l122 481 107 3 c99 2 107 1 102 -15 -3 -10 -55 -184 -117 -388
-61 -203 -143 -478 -183 -610 l-72 -240 -137 -3 -137 -3 0 28 c0 15 7 154 15
308 8 154 19 375 25 490 5 116 13 261 16 323 l7 112 103 0 104 0 0 -27z m666
0 c-3 -16 -17 -93 -30 -173 -37 -213 -176 -1000 -182 -1032 l-6 -28 -105 0
-105 0 4 33 c6 44 209 1199 214 1215 2 8 33 12 109 12 l107 0 -6 -27z m564 9
c0 -18 -15 -112 -25 -159 -5 -22 -10 -23 -105 -23 -54 0 -101 -3 -103 -7 -3
-5 -19 -91 -37 -193 -17 -102 -34 -195 -37 -207 -5 -22 -3 -23 61 -23 76 0 74
5 52 -118 -17 -94 -11 -89 -100 -91 l-53 -1 -17 -89 c-26 -142 -33 -131 90
-131 105 0 106 0 101 -22 -3 -13 -11 -58 -18 -100 l-12 -78 -213 0 c-117 0
-215 3 -217 8 -2 4 46 287 107 630 l110 622 208 0 c194 0 208 -1 208 -18z
m1598 -1429 l3 -43 -2445 0 -2446 0 0 38 c0 21 3 42 7 45 3 4 1102 6 2442 5
l2436 -3 3 -42z m167 2 l0 -40 -47 -3 -48 -3 0 46 0 46 48 -3 47 -3 0 -40z
m153 -2 l3 -43 -50 0 -51 0 0 38 c0 49 5 54 55 50 39 -3 40 -4 43 -45z"/>
<path d="M1951 2363 c-18 -15 -28 -56 -65 -268 -24 -137 -59 -334 -77 -437
-27 -155 -31 -189 -20 -202 18 -21 44 -20 70 2 17 14 27 56 60 247 22 127 57
324 77 439 35 201 36 210 18 223 -24 17 -38 16 -63 -4z"/>
</g>
</svg>
